<?xml version="1.0" encoding="UTF-8" standalone="no"?>
<svg
   viewBox="0 0 72 72"
   fill="none"
   version="1.1"
   id="svg1"
   sodipodi:docname="favicon.svg"
   inkscape:version="1.4.3 (0d15f75, 2025-12-25)"
   xmlns:inkscape="http://www.inkscape.org/namespaces/inkscape"
   xmlns:sodipodi="http://sodipodi.sourceforge.net/DTD/sodipodi-0.dtd"
   xmlns="http://www.w3.org/2000/svg"
   xmlns:svg="http://www.w3.org/2000/svg">
  <defs
     id="defs1" />
  <sodipodi:namedview
     id="namedview1"
     pagecolor="#ffffff"
     bordercolor="#000000"
     borderopacity="0.25"
     inkscape:showpageshadow="2"
     inkscape:pageopacity="0.0"
     inkscape:pagecheckerboard="0"
     inkscape:deskcolor="#d1d1d1"
     inkscape:zoom="15.782726"
     inkscape:cx="28.733946"
     inkscape:cy="34.689825"
     inkscape:window-width="1728"
     inkscape:window-height="1084"
     inkscape:window-x="0"
     inkscape:window-y="33"
     inkscape:window-maximized="0"
     inkscape:current-layer="svg1" />
  <rect
     width="72"
     height="72"
     rx="18"
     fill="#0D1411"
     id="rect1" />
  <path
     d="M36 55C35 55 13 42 13 28C13 20.5 19 15 26 15C30.5 15 34 17.5 36 21C38 17.5 41.5 15 46 15C53 15 59 20.5 59 28C59 42 37 55 36 55Z"
     fill="#2DD4BF"
     fill-opacity="0.1"
     stroke="#2DD4BF"
     stroke-width="2"
     id="path1" />
  <polyline
     points="18,34 23,34 27,25 31,43 35,19 39,43 43,30 47,34 54,34"
     fill="none"
     stroke="#2dd4bf"
     stroke-width="2.2"
     stroke-linecap="round"
     stroke-linejoin="round"
     id="polyline1"
     transform="translate(0.92202378,4.8042292)" />
</svg>
